<svg width="24" height="31" viewBox="0 0 24 31" fill="none" xmlns="http://www.w3.org/2000/svg">
<path d="M0.333984 26.2821V24.6154H3.02648V11.4104C3.02648 9.23292 3.71551 7.31778 5.09357 5.665C6.4719 4.01222 8.21871 2.98292 10.334 2.57708V1.66667C10.334 1.20361 10.4957 0.810138 10.819 0.486249C11.1423 0.162083 11.535 0 11.9969 0C12.4588 0 12.8527 0.162083 13.1786 0.486249C13.5044 0.810138 13.6673 1.20361 13.6673 1.66667V2.57708C15.7826 2.98292 17.5294 4.01222 18.9077 5.665C20.2858 7.31778 20.9748 9.23292 20.9748 11.4104V24.6154H23.6673V26.2821H0.333984ZM11.9948 30.6408C11.2529 30.6408 10.6197 30.3772 10.0952 29.85C9.57051 29.3228 9.30815 28.689 9.30815 27.9488H14.6932C14.6932 28.6946 14.4288 29.3297 13.9002 29.8542C13.3719 30.3786 12.7368 30.6408 11.9948 30.6408ZM4.69315 24.6154H19.3082V11.4104C19.3082 9.38458 18.5966 7.66014 17.1736 6.23708C15.7505 4.81403 14.0262 4.1025 12.0007 4.1025C9.9751 4.1025 8.25079 4.81403 6.82773 6.23708C5.40468 7.66014 4.69315 9.38458 4.69315 11.4104V24.6154Z" fill="#E3E3F1"/>
</svg>
